<svg xmlns="http://www.w3.org/2000/svg" xmlns:xlink="http://www.w3.org/1999/xlink" width="200" zoomAndPan="magnify" viewBox="0 0 150 149.999998" height="200" preserveAspectRatio="xMidYMid meet" version="1.0"><defs><g/><clipPath id="818bd44d3c"><path d="M 44.589844 34.28125 L 105.699219 34.28125 L 105.699219 83.027344 L 44.589844 83.027344 Z M 44.589844 34.28125 " clip-rule="nonzero"/></clipPath></defs><rect x="-15" width="180" fill="#ffffff" y="-15" height="179.999997" fill-opacity="1"/><rect x="-15" width="180" fill="#ffffff" y="-15" height="179.999997" fill-opacity="1"/><rect x="-15" width="180" fill="#ffffff" y="-15" height="179.999997" fill-opacity="1"/><g clip-path="url(#818bd44d3c)"><path fill="#040606" d="M 91.953125 46.46875 C 94.476562 46.46875 96.535156 48.519531 96.535156 51.039062 C 96.535156 53.5625 94.476562 55.609375 91.953125 55.609375 C 89.425781 55.609375 87.367188 53.5625 87.367188 51.039062 C 87.367188 48.519531 89.425781 46.46875 91.953125 46.46875 Z M 91.953125 58.65625 C 96.171875 58.65625 99.585938 55.242188 99.585938 51.039062 C 99.585938 46.832031 96.171875 43.421875 91.953125 43.421875 C 87.730469 43.421875 84.3125 46.832031 84.3125 51.039062 C 84.3125 55.242188 87.730469 58.65625 91.953125 58.65625 Z M 102.644531 59.886719 L 88.441406 70.136719 L 83.289062 67.199219 L 84.925781 64.75 L 78.671875 55.390625 L 84.785156 43.199219 L 80.851562 37.324219 L 102.644531 37.324219 Z M 102.644531 78.230469 L 91.34375 71.792969 L 102.644531 63.585938 Z M 82.890625 79.984375 L 78.816406 73.890625 L 81.589844 69.742188 L 99.5625 79.984375 Z M 75.144531 34.28125 L 81.257812 43.421875 L 75.144531 55.609375 L 81.257812 64.75 L 75.144531 73.890625 L 81.257812 83.027344 L 105.699219 83.027344 L 105.699219 34.28125 Z M 69.4375 79.984375 L 47.644531 79.984375 L 47.644531 66.648438 L 59.855469 57.519531 L 70.71875 65.878906 L 65.363281 73.890625 Z M 47.644531 37.324219 L 66.816406 37.324219 L 71.574219 43.730469 L 65.507812 55.828125 L 68.53125 60.351562 L 59.878906 53.695312 L 47.644531 62.84375 Z M 75.144531 64.75 L 69.035156 55.609375 L 75.144531 43.421875 L 68.351562 34.28125 L 44.589844 34.28125 L 44.589844 83.027344 L 75.144531 83.027344 L 69.035156 73.890625 L 75.144531 64.75 " fill-opacity="1" fill-rule="nonzero"/></g><g fill="#000000" fill-opacity="1"><g transform="translate(16.042969, 114.182119)"><g><path d="M 4.328125 0.109375 C 3.203125 0.109375 2.367188 -0.15625 1.828125 -0.6875 C 1.285156 -1.21875 1.015625 -2.007812 1.015625 -3.0625 L 1.015625 -8.15625 L 2.59375 -8.15625 L 2.59375 -3.0625 C 2.59375 -2.46875 2.734375 -2.019531 3.015625 -1.71875 C 3.304688 -1.425781 3.742188 -1.28125 4.328125 -1.28125 C 5.484375 -1.28125 6.0625 -1.875 6.0625 -3.0625 L 6.0625 -8.15625 L 7.640625 -8.15625 L 7.640625 -3.0625 C 7.640625 -2.007812 7.363281 -1.21875 6.8125 -0.6875 C 6.269531 -0.15625 5.441406 0.109375 4.328125 0.109375 Z M 4.328125 0.109375 "/></g></g></g><g fill="#000000" fill-opacity="1"><g transform="translate(24.681541, 114.182119)"><g><path d="M 0.890625 0 L 0.890625 -6.15625 L 2.375 -6.15625 L 2.375 -5.25 L 2.484375 -5.21875 C 2.867188 -5.914062 3.488281 -6.265625 4.34375 -6.265625 C 5.0625 -6.265625 5.582031 -6.070312 5.90625 -5.6875 C 6.238281 -5.300781 6.40625 -4.738281 6.40625 -4 L 6.40625 0 L 4.875 0 L 4.875 -3.8125 C 4.875 -4.21875 4.789062 -4.507812 4.625 -4.6875 C 4.457031 -4.875 4.195312 -4.96875 3.84375 -4.96875 C 3.394531 -4.96875 3.046875 -4.820312 2.796875 -4.53125 C 2.554688 -4.25 2.4375 -3.800781 2.4375 -3.1875 L 2.4375 0 Z M 0.890625 0 "/></g></g></g><g fill="#000000" fill-opacity="1"><g transform="translate(31.882209, 114.182119)"><g><path d="M 2.390625 0.109375 C 2.003906 0.109375 1.664062 0.0390625 1.375 -0.09375 C 1.082031 -0.238281 0.859375 -0.453125 0.703125 -0.734375 C 0.546875 -1.015625 0.46875 -1.351562 0.46875 -1.75 C 0.46875 -2.113281 0.546875 -2.421875 0.703125 -2.671875 C 0.859375 -2.921875 1.097656 -3.125 1.421875 -3.28125 C 1.753906 -3.4375 2.179688 -3.554688 2.703125 -3.640625 C 3.078125 -3.703125 3.359375 -3.765625 3.546875 -3.828125 C 3.742188 -3.898438 3.875 -3.976562 3.9375 -4.0625 C 4 -4.15625 4.03125 -4.273438 4.03125 -4.421875 C 4.03125 -4.617188 3.960938 -4.769531 3.828125 -4.875 C 3.691406 -4.976562 3.460938 -5.03125 3.140625 -5.03125 C 2.796875 -5.03125 2.46875 -4.953125 2.15625 -4.796875 C 1.851562 -4.640625 1.585938 -4.4375 1.359375 -4.1875 L 1.25 -4.1875 L 0.609375 -5.171875 C 0.921875 -5.515625 1.300781 -5.78125 1.75 -5.96875 C 2.195312 -6.164062 2.6875 -6.265625 3.21875 -6.265625 C 4.03125 -6.265625 4.617188 -6.09375 4.984375 -5.75 C 5.347656 -5.40625 5.53125 -4.914062 5.53125 -4.28125 L 5.53125 -1.609375 C 5.53125 -1.328125 5.65625 -1.1875 5.90625 -1.1875 C 6 -1.1875 6.085938 -1.207031 6.171875 -1.25 L 6.25 -1.21875 L 6.359375 -0.140625 C 6.273438 -0.0859375 6.15625 -0.0390625 6 0 C 5.851562 0.03125 5.6875 0.046875 5.5 0.046875 C 5.132812 0.046875 4.847656 -0.0195312 4.640625 -0.15625 C 4.429688 -0.300781 4.285156 -0.523438 4.203125 -0.828125 L 4.078125 -0.84375 C 3.773438 -0.207031 3.210938 0.109375 2.390625 0.109375 Z M 2.890625 -1.03125 C 3.242188 -1.03125 3.523438 -1.148438 3.734375 -1.390625 C 3.953125 -1.628906 4.0625 -1.960938 4.0625 -2.390625 L 4.0625 -3.015625 L 3.953125 -3.046875 C 3.859375 -2.972656 3.738281 -2.910156 3.59375 -2.859375 C 3.445312 -2.804688 3.226562 -2.753906 2.9375 -2.703125 C 2.601562 -2.648438 2.363281 -2.554688 2.21875 -2.421875 C 2.070312 -2.285156 2 -2.09375 2 -1.84375 C 2 -1.582031 2.078125 -1.378906 2.234375 -1.234375 C 2.390625 -1.097656 2.609375 -1.03125 2.890625 -1.03125 Z M 2.890625 -1.03125 "/></g></g></g><g fill="#000000" fill-opacity="1"><g transform="translate(38.363925, 114.182119)"><g><path d="M 4.296875 0.109375 C 3.515625 0.109375 2.929688 -0.179688 2.546875 -0.765625 L 2.4375 -0.734375 L 2.4375 0 L 0.890625 0 L 0.890625 -8.625 L 2.4375 -8.625 L 2.4375 -5.421875 L 2.546875 -5.40625 C 2.753906 -5.695312 3.003906 -5.910156 3.296875 -6.046875 C 3.585938 -6.191406 3.929688 -6.265625 4.328125 -6.265625 C 4.828125 -6.265625 5.265625 -6.144531 5.640625 -5.90625 C 6.015625 -5.675781 6.304688 -5.320312 6.515625 -4.84375 C 6.722656 -4.363281 6.828125 -3.773438 6.828125 -3.078125 C 6.828125 -2.378906 6.71875 -1.789062 6.5 -1.3125 C 6.28125 -0.832031 5.976562 -0.472656 5.59375 -0.234375 C 5.21875 -0.00390625 4.785156 0.109375 4.296875 0.109375 Z M 3.828125 -1.1875 C 4.285156 -1.1875 4.628906 -1.335938 4.859375 -1.640625 C 5.097656 -1.953125 5.21875 -2.429688 5.21875 -3.078125 C 5.21875 -3.722656 5.097656 -4.195312 4.859375 -4.5 C 4.628906 -4.800781 4.285156 -4.953125 3.828125 -4.953125 C 3.390625 -4.953125 3.046875 -4.796875 2.796875 -4.484375 C 2.546875 -4.171875 2.421875 -3.703125 2.421875 -3.078125 C 2.421875 -2.441406 2.546875 -1.96875 2.796875 -1.65625 C 3.046875 -1.34375 3.390625 -1.1875 3.828125 -1.1875 Z M 3.828125 -1.1875 "/></g></g></g><g fill="#000000" fill-opacity="1"><g transform="translate(45.726218, 114.182119)"><g><path d="M 2.546875 0.109375 C 1.992188 0.109375 1.570312 -0.0351562 1.28125 -0.328125 C 0.988281 -0.628906 0.84375 -1.085938 0.84375 -1.703125 L 0.84375 -8.625 L 2.390625 -8.625 L 2.390625 -1.75 C 2.390625 -1.375 2.546875 -1.1875 2.859375 -1.1875 C 2.953125 -1.1875 3.046875 -1.203125 3.140625 -1.234375 L 3.21875 -1.21875 L 3.359375 -0.03125 C 3.273438 0.0078125 3.160156 0.0390625 3.015625 0.0625 C 2.878906 0.09375 2.722656 0.109375 2.546875 0.109375 Z M 2.546875 0.109375 "/></g></g></g><g fill="#000000" fill-opacity="1"><g transform="translate(49.259672, 114.182119)"><g><path d="M 6.078125 -2.734375 L 2.125 -2.71875 C 2.175781 -2.1875 2.328125 -1.796875 2.578125 -1.546875 C 2.835938 -1.304688 3.191406 -1.1875 3.640625 -1.1875 C 3.992188 -1.1875 4.28125 -1.253906 4.5 -1.390625 C 4.71875 -1.523438 4.894531 -1.722656 5.03125 -1.984375 L 5.15625 -1.984375 L 6.171875 -1.328125 C 5.972656 -0.898438 5.671875 -0.550781 5.265625 -0.28125 C 4.859375 -0.0195312 4.316406 0.109375 3.640625 0.109375 C 3.003906 0.109375 2.457031 -0.0078125 2 -0.25 C 1.539062 -0.488281 1.179688 -0.847656 0.921875 -1.328125 C 0.671875 -1.804688 0.546875 -2.390625 0.546875 -3.078125 C 0.546875 -3.773438 0.675781 -4.363281 0.9375 -4.84375 C 1.207031 -5.320312 1.566406 -5.675781 2.015625 -5.90625 C 2.460938 -6.144531 2.96875 -6.265625 3.53125 -6.265625 C 4.40625 -6.265625 5.070312 -6.035156 5.53125 -5.578125 C 6 -5.117188 6.234375 -4.441406 6.234375 -3.546875 C 6.234375 -3.222656 6.222656 -2.972656 6.203125 -2.796875 Z M 4.75 -3.71875 C 4.738281 -4.1875 4.628906 -4.523438 4.421875 -4.734375 C 4.222656 -4.953125 3.925781 -5.0625 3.53125 -5.0625 C 2.75 -5.0625 2.289062 -4.613281 2.15625 -3.71875 Z M 4.75 -3.71875 "/></g></g></g><g fill="#000000" fill-opacity="1"><g transform="translate(55.942026, 114.182119)"><g/></g></g><g fill="#000000" fill-opacity="1"><g transform="translate(58.633916, 114.182119)"><g><path d="M 4.25 -1.46875 L 4.640625 -0.328125 C 4.472656 -0.179688 4.265625 -0.0703125 4.015625 0 C 3.765625 0.0703125 3.476562 0.109375 3.15625 0.109375 C 2.488281 0.109375 1.984375 -0.0664062 1.640625 -0.421875 C 1.296875 -0.785156 1.125 -1.3125 1.125 -2 L 1.125 -4.921875 L 0.1875 -4.921875 L 0.1875 -6.15625 L 1.125 -6.15625 L 1.125 -7.359375 L 2.671875 -7.609375 L 2.671875 -6.15625 L 4.40625 -6.15625 L 4.40625 -4.921875 L 2.671875 -4.921875 L 2.671875 -2.125 C 2.671875 -1.8125 2.734375 -1.585938 2.859375 -1.453125 C 2.984375 -1.316406 3.164062 -1.25 3.40625 -1.25 C 3.675781 -1.25 3.914062 -1.320312 4.125 -1.46875 Z M 4.25 -1.46875 "/></g></g></g><g fill="#000000" fill-opacity="1"><g transform="translate(63.410211, 114.182119)"><g><path d="M 3.578125 0.109375 C 2.972656 0.109375 2.441406 -0.0078125 1.984375 -0.25 C 1.535156 -0.5 1.179688 -0.863281 0.921875 -1.34375 C 0.671875 -1.820312 0.546875 -2.398438 0.546875 -3.078125 C 0.546875 -3.753906 0.671875 -4.332031 0.921875 -4.8125 C 1.179688 -5.289062 1.535156 -5.648438 1.984375 -5.890625 C 2.441406 -6.140625 2.972656 -6.265625 3.578125 -6.265625 C 4.179688 -6.265625 4.707031 -6.140625 5.15625 -5.890625 C 5.613281 -5.648438 5.96875 -5.289062 6.21875 -4.8125 C 6.476562 -4.332031 6.609375 -3.753906 6.609375 -3.078125 C 6.609375 -2.398438 6.476562 -1.820312 6.21875 -1.34375 C 5.96875 -0.863281 5.613281 -0.5 5.15625 -0.25 C 4.707031 -0.0078125 4.179688 0.109375 3.578125 0.109375 Z M 3.578125 -1.1875 C 4.535156 -1.1875 5.015625 -1.816406 5.015625 -3.078125 C 5.015625 -3.722656 4.890625 -4.195312 4.640625 -4.5 C 4.390625 -4.800781 4.035156 -4.953125 3.578125 -4.953125 C 2.617188 -4.953125 2.140625 -4.328125 2.140625 -3.078125 C 2.140625 -1.816406 2.617188 -1.1875 3.578125 -1.1875 Z M 3.578125 -1.1875 "/></g></g></g><g fill="#000000" fill-opacity="1"><g transform="translate(70.555146, 114.182119)"><g/></g></g><g fill="#000000" fill-opacity="1"><g transform="translate(73.247037, 114.182119)"><g><path d="M 2.546875 0.109375 C 1.992188 0.109375 1.570312 -0.0351562 1.28125 -0.328125 C 0.988281 -0.628906 0.84375 -1.085938 0.84375 -1.703125 L 0.84375 -8.625 L 2.390625 -8.625 L 2.390625 -1.75 C 2.390625 -1.375 2.546875 -1.1875 2.859375 -1.1875 C 2.953125 -1.1875 3.046875 -1.203125 3.140625 -1.234375 L 3.21875 -1.21875 L 3.359375 -0.03125 C 3.273438 0.0078125 3.160156 0.0390625 3.015625 0.0625 C 2.878906 0.09375 2.722656 0.109375 2.546875 0.109375 Z M 2.546875 0.109375 "/></g></g></g><g fill="#000000" fill-opacity="1"><g transform="translate(76.780491, 114.182119)"><g><path d="M 3.578125 0.109375 C 2.972656 0.109375 2.441406 -0.0078125 1.984375 -0.25 C 1.535156 -0.5 1.179688 -0.863281 0.921875 -1.34375 C 0.671875 -1.820312 0.546875 -2.398438 0.546875 -3.078125 C 0.546875 -3.753906 0.671875 -4.332031 0.921875 -4.8125 C 1.179688 -5.289062 1.535156 -5.648438 1.984375 -5.890625 C 2.441406 -6.140625 2.972656 -6.265625 3.578125 -6.265625 C 4.179688 -6.265625 4.707031 -6.140625 5.15625 -5.890625 C 5.613281 -5.648438 5.96875 -5.289062 6.21875 -4.8125 C 6.476562 -4.332031 6.609375 -3.753906 6.609375 -3.078125 C 6.609375 -2.398438 6.476562 -1.820312 6.21875 -1.34375 C 5.96875 -0.863281 5.613281 -0.5 5.15625 -0.25 C 4.707031 -0.0078125 4.179688 0.109375 3.578125 0.109375 Z M 3.578125 -1.1875 C 4.535156 -1.1875 5.015625 -1.816406 5.015625 -3.078125 C 5.015625 -3.722656 4.890625 -4.195312 4.640625 -4.5 C 4.390625 -4.800781 4.035156 -4.953125 3.578125 -4.953125 C 2.617188 -4.953125 2.140625 -4.328125 2.140625 -3.078125 C 2.140625 -1.816406 2.617188 -1.1875 3.578125 -1.1875 Z M 3.578125 -1.1875 "/></g></g></g><g fill="#000000" fill-opacity="1"><g transform="translate(83.925426, 114.182119)"><g><path d="M 2.390625 0.109375 C 2.003906 0.109375 1.664062 0.0390625 1.375 -0.09375 C 1.082031 -0.238281 0.859375 -0.453125 0.703125 -0.734375 C 0.546875 -1.015625 0.46875 -1.351562 0.46875 -1.75 C 0.46875 -2.113281 0.546875 -2.421875 0.703125 -2.671875 C 0.859375 -2.921875 1.097656 -3.125 1.421875 -3.28125 C 1.753906 -3.4375 2.179688 -3.554688 2.703125 -3.640625 C 3.078125 -3.703125 3.359375 -3.765625 3.546875 -3.828125 C 3.742188 -3.898438 3.875 -3.976562 3.9375 -4.0625 C 4 -4.15625 4.03125 -4.273438 4.03125 -4.421875 C 4.03125 -4.617188 3.960938 -4.769531 3.828125 -4.875 C 3.691406 -4.976562 3.460938 -5.03125 3.140625 -5.03125 C 2.796875 -5.03125 2.46875 -4.953125 2.15625 -4.796875 C 1.851562 -4.640625 1.585938 -4.4375 1.359375 -4.1875 L 1.25 -4.1875 L 0.609375 -5.171875 C 0.921875 -5.515625 1.300781 -5.78125 1.75 -5.96875 C 2.195312 -6.164062 2.6875 -6.265625 3.21875 -6.265625 C 4.03125 -6.265625 4.617188 -6.09375 4.984375 -5.75 C 5.347656 -5.40625 5.53125 -4.914062 5.53125 -4.28125 L 5.53125 -1.609375 C 5.53125 -1.328125 5.65625 -1.1875 5.90625 -1.1875 C 6 -1.1875 6.085938 -1.207031 6.171875 -1.25 L 6.25 -1.21875 L 6.359375 -0.140625 C 6.273438 -0.0859375 6.15625 -0.0390625 6 0 C 5.851562 0.03125 5.6875 0.046875 5.5 0.046875 C 5.132812 0.046875 4.847656 -0.0195312 4.640625 -0.15625 C 4.429688 -0.300781 4.285156 -0.523438 4.203125 -0.828125 L 4.078125 -0.84375 C 3.773438 -0.207031 3.210938 0.109375 2.390625 0.109375 Z M 2.890625 -1.03125 C 3.242188 -1.03125 3.523438 -1.148438 3.734375 -1.390625 C 3.953125 -1.628906 4.0625 -1.960938 4.0625 -2.390625 L 4.0625 -3.015625 L 3.953125 -3.046875 C 3.859375 -2.972656 3.738281 -2.910156 3.59375 -2.859375 C 3.445312 -2.804688 3.226562 -2.753906 2.9375 -2.703125 C 2.601562 -2.648438 2.363281 -2.554688 2.21875 -2.421875 C 2.070312 -2.285156 2 -2.09375 2 -1.84375 C 2 -1.582031 2.078125 -1.378906 2.234375 -1.234375 C 2.390625 -1.097656 2.609375 -1.03125 2.890625 -1.03125 Z M 2.890625 -1.03125 "/></g></g></g><g fill="#000000" fill-opacity="1"><g transform="translate(90.407142, 114.182119)"><g><path d="M 3.046875 0.109375 C 2.554688 0.109375 2.125 -0.00390625 1.75 -0.234375 C 1.375 -0.472656 1.078125 -0.832031 0.859375 -1.3125 C 0.648438 -1.789062 0.546875 -2.378906 0.546875 -3.078125 C 0.546875 -3.773438 0.65625 -4.363281 0.875 -4.84375 C 1.09375 -5.320312 1.394531 -5.675781 1.78125 -5.90625 C 2.164062 -6.144531 2.613281 -6.265625 3.125 -6.265625 C 3.5 -6.265625 3.828125 -6.195312 4.109375 -6.0625 C 4.390625 -5.9375 4.628906 -5.734375 4.828125 -5.453125 L 4.9375 -5.484375 L 4.9375 -8.625 L 6.484375 -8.625 L 6.484375 0 L 4.9375 0 L 4.9375 -0.796875 L 4.828125 -0.8125 C 4.648438 -0.53125 4.410156 -0.304688 4.109375 -0.140625 C 3.816406 0.0234375 3.460938 0.109375 3.046875 0.109375 Z M 3.546875 -1.1875 C 3.972656 -1.1875 4.3125 -1.34375 4.5625 -1.65625 C 4.820312 -1.96875 4.953125 -2.441406 4.953125 -3.078125 C 4.953125 -3.703125 4.820312 -4.171875 4.5625 -4.484375 C 4.3125 -4.796875 3.972656 -4.953125 3.546875 -4.953125 C 3.085938 -4.953125 2.738281 -4.800781 2.5 -4.5 C 2.257812 -4.195312 2.140625 -3.722656 2.140625 -3.078125 C 2.140625 -2.429688 2.257812 -1.953125 2.5 -1.640625 C 2.738281 -1.335938 3.085938 -1.1875 3.546875 -1.1875 Z M 3.546875 -1.1875 "/></g></g></g><g fill="#000000" fill-opacity="1"><g transform="translate(97.775008, 114.182119)"><g/></g></g><g fill="#000000" fill-opacity="1"><g transform="translate(100.466899, 114.182119)"><g><path d="M 1.65625 -6.890625 C 1.375 -6.890625 1.144531 -6.972656 0.96875 -7.140625 C 0.800781 -7.304688 0.71875 -7.523438 0.71875 -7.796875 C 0.71875 -8.054688 0.800781 -8.269531 0.96875 -8.4375 C 1.144531 -8.613281 1.375 -8.703125 1.65625 -8.703125 C 1.84375 -8.703125 2.007812 -8.660156 2.15625 -8.578125 C 2.300781 -8.503906 2.410156 -8.398438 2.484375 -8.265625 C 2.566406 -8.128906 2.609375 -7.972656 2.609375 -7.796875 C 2.609375 -7.617188 2.566406 -7.460938 2.484375 -7.328125 C 2.410156 -7.191406 2.300781 -7.082031 2.15625 -7 C 2.007812 -6.925781 1.84375 -6.890625 1.65625 -6.890625 Z M 2.4375 0 L 0.890625 0 L 0.890625 -6.15625 L 2.4375 -6.15625 Z M 2.4375 0 "/></g></g></g><g fill="#000000" fill-opacity="1"><g transform="translate(103.777423, 114.182119)"><g><path d="M 0.890625 0 L 0.890625 -6.15625 L 2.375 -6.15625 L 2.375 -5.328125 L 2.484375 -5.296875 C 2.679688 -5.628906 2.914062 -5.875 3.1875 -6.03125 C 3.457031 -6.1875 3.804688 -6.265625 4.234375 -6.265625 C 4.691406 -6.265625 5.0625 -6.171875 5.34375 -5.984375 C 5.625 -5.804688 5.832031 -5.539062 5.96875 -5.1875 L 6.078125 -5.1875 C 6.273438 -5.550781 6.519531 -5.820312 6.8125 -6 C 7.113281 -6.175781 7.488281 -6.265625 7.9375 -6.265625 C 9.207031 -6.265625 9.84375 -5.554688 9.84375 -4.140625 L 9.84375 0 L 8.296875 0 L 8.296875 -3.9375 C 8.296875 -4.300781 8.222656 -4.5625 8.078125 -4.71875 C 7.941406 -4.882812 7.71875 -4.96875 7.40625 -4.96875 C 6.5625 -4.96875 6.140625 -4.398438 6.140625 -3.265625 L 6.140625 0 L 4.59375 0 L 4.59375 -3.9375 C 4.59375 -4.300781 4.519531 -4.5625 4.375 -4.71875 C 4.238281 -4.882812 4.015625 -4.96875 3.703125 -4.96875 C 3.296875 -4.96875 2.984375 -4.832031 2.765625 -4.5625 C 2.546875 -4.300781 2.4375 -3.878906 2.4375 -3.296875 L 2.4375 0 Z M 0.890625 0 "/></g></g></g><g fill="#000000" fill-opacity="1"><g transform="translate(114.411226, 114.182119)"><g><path d="M 2.390625 0.109375 C 2.003906 0.109375 1.664062 0.0390625 1.375 -0.09375 C 1.082031 -0.238281 0.859375 -0.453125 0.703125 -0.734375 C 0.546875 -1.015625 0.46875 -1.351562 0.46875 -1.75 C 0.46875 -2.113281 0.546875 -2.421875 0.703125 -2.671875 C 0.859375 -2.921875 1.097656 -3.125 1.421875 -3.28125 C 1.753906 -3.4375 2.179688 -3.554688 2.703125 -3.640625 C 3.078125 -3.703125 3.359375 -3.765625 3.546875 -3.828125 C 3.742188 -3.898438 3.875 -3.976562 3.9375 -4.0625 C 4 -4.15625 4.03125 -4.273438 4.03125 -4.421875 C 4.03125 -4.617188 3.960938 -4.769531 3.828125 -4.875 C 3.691406 -4.976562 3.460938 -5.03125 3.140625 -5.03125 C 2.796875 -5.03125 2.46875 -4.953125 2.15625 -4.796875 C 1.851562 -4.640625 1.585938 -4.4375 1.359375 -4.1875 L 1.25 -4.1875 L 0.609375 -5.171875 C 0.921875 -5.515625 1.300781 -5.78125 1.75 -5.96875 C 2.195312 -6.164062 2.6875 -6.265625 3.21875 -6.265625 C 4.03125 -6.265625 4.617188 -6.09375 4.984375 -5.75 C 5.347656 -5.40625 5.53125 -4.914062 5.53125 -4.28125 L 5.53125 -1.609375 C 5.53125 -1.328125 5.65625 -1.1875 5.90625 -1.1875 C 6 -1.1875 6.085938 -1.207031 6.171875 -1.25 L 6.25 -1.21875 L 6.359375 -0.140625 C 6.273438 -0.0859375 6.15625 -0.0390625 6 0 C 5.851562 0.03125 5.6875 0.046875 5.5 0.046875 C 5.132812 0.046875 4.847656 -0.0195312 4.640625 -0.15625 C 4.429688 -0.300781 4.285156 -0.523438 4.203125 -0.828125 L 4.078125 -0.84375 C 3.773438 -0.207031 3.210938 0.109375 2.390625 0.109375 Z M 2.890625 -1.03125 C 3.242188 -1.03125 3.523438 -1.148438 3.734375 -1.390625 C 3.953125 -1.628906 4.0625 -1.960938 4.0625 -2.390625 L 4.0625 -3.015625 L 3.953125 -3.046875 C 3.859375 -2.972656 3.738281 -2.910156 3.59375 -2.859375 C 3.445312 -2.804688 3.226562 -2.753906 2.9375 -2.703125 C 2.601562 -2.648438 2.363281 -2.554688 2.21875 -2.421875 C 2.070312 -2.285156 2 -2.09375 2 -1.84375 C 2 -1.582031 2.078125 -1.378906 2.234375 -1.234375 C 2.390625 -1.097656 2.609375 -1.03125 2.890625 -1.03125 Z M 2.890625 -1.03125 "/></g></g></g><g fill="#000000" fill-opacity="1"><g transform="translate(120.892942, 114.182119)"><g><path d="M 3.1875 2.609375 C 2.175781 2.609375 1.425781 2.457031 0.9375 2.15625 C 0.457031 1.863281 0.21875 1.453125 0.21875 0.921875 C 0.21875 0.597656 0.320312 0.332031 0.53125 0.125 C 0.738281 -0.0820312 1.035156 -0.222656 1.421875 -0.296875 L 1.421875 -0.40625 C 1.210938 -0.53125 1.0625 -0.671875 0.96875 -0.828125 C 0.875 -0.984375 0.828125 -1.160156 0.828125 -1.359375 C 0.828125 -1.859375 1.148438 -2.191406 1.796875 -2.359375 L 1.796875 -2.484375 C 1.460938 -2.671875 1.210938 -2.90625 1.046875 -3.1875 C 0.878906 -3.46875 0.796875 -3.804688 0.796875 -4.203125 C 0.796875 -4.609375 0.890625 -4.96875 1.078125 -5.28125 C 1.265625 -5.59375 1.539062 -5.832031 1.90625 -6 C 2.269531 -6.175781 2.703125 -6.265625 3.203125 -6.265625 C 3.710938 -6.265625 4.125 -6.175781 4.4375 -6 C 4.625 -6.269531 4.734375 -6.585938 4.765625 -6.953125 L 4.875 -7.03125 L 5.984375 -6.75 C 5.953125 -6.457031 5.867188 -6.210938 5.734375 -6.015625 C 5.597656 -5.816406 5.382812 -5.640625 5.09375 -5.484375 L 5.09375 -5.359375 C 5.4375 -5.054688 5.609375 -4.628906 5.609375 -4.078125 C 5.609375 -3.703125 5.515625 -3.363281 5.328125 -3.0625 C 5.140625 -2.757812 4.863281 -2.519531 4.5 -2.34375 C 4.132812 -2.164062 3.703125 -2.078125 3.203125 -2.078125 L 2.96875 -2.09375 C 2.820312 -2.101562 2.71875 -2.109375 2.65625 -2.109375 C 2.519531 -2.109375 2.410156 -2.066406 2.328125 -1.984375 C 2.242188 -1.910156 2.203125 -1.816406 2.203125 -1.703125 C 2.203125 -1.566406 2.253906 -1.460938 2.359375 -1.390625 C 2.460938 -1.316406 2.617188 -1.273438 2.828125 -1.265625 L 4.203125 -1.21875 C 5.554688 -1.175781 6.234375 -0.59375 6.234375 0.53125 C 6.234375 0.925781 6.132812 1.28125 5.9375 1.59375 C 5.738281 1.90625 5.410156 2.148438 4.953125 2.328125 C 4.492188 2.515625 3.90625 2.609375 3.1875 2.609375 Z M 3.203125 -3.171875 C 3.503906 -3.171875 3.738281 -3.253906 3.90625 -3.421875 C 4.070312 -3.597656 4.15625 -3.847656 4.15625 -4.171875 C 4.15625 -4.492188 4.070312 -4.742188 3.90625 -4.921875 C 3.738281 -5.097656 3.503906 -5.1875 3.203125 -5.1875 C 2.898438 -5.1875 2.664062 -5.097656 2.5 -4.921875 C 2.34375 -4.742188 2.265625 -4.492188 2.265625 -4.171875 C 2.265625 -3.847656 2.34375 -3.597656 2.5 -3.421875 C 2.664062 -3.253906 2.898438 -3.171875 3.203125 -3.171875 Z M 3.1875 1.484375 C 3.71875 1.484375 4.101562 1.410156 4.34375 1.265625 C 4.582031 1.117188 4.703125 0.925781 4.703125 0.6875 C 4.703125 0.488281 4.640625 0.34375 4.515625 0.25 C 4.390625 0.164062 4.195312 0.117188 3.9375 0.109375 L 2.71875 0.0625 C 2.675781 0.0625 2.632812 0.0546875 2.59375 0.046875 C 2.5625 0.046875 2.53125 0.046875 2.5 0.046875 C 2.238281 0.046875 2.039062 0.0976562 1.90625 0.203125 C 1.769531 0.316406 1.703125 0.472656 1.703125 0.671875 C 1.703125 0.929688 1.828125 1.128906 2.078125 1.265625 C 2.328125 1.410156 2.695312 1.484375 3.1875 1.484375 Z M 3.1875 1.484375 "/></g></g></g><g fill="#000000" fill-opacity="1"><g transform="translate(127.285486, 114.182119)"><g><path d="M 6.078125 -2.734375 L 2.125 -2.71875 C 2.175781 -2.1875 2.328125 -1.796875 2.578125 -1.546875 C 2.835938 -1.304688 3.191406 -1.1875 3.640625 -1.1875 C 3.992188 -1.1875 4.28125 -1.253906 4.5 -1.390625 C 4.71875 -1.523438 4.894531 -1.722656 5.03125 -1.984375 L 5.15625 -1.984375 L 6.171875 -1.328125 C 5.972656 -0.898438 5.671875 -0.550781 5.265625 -0.28125 C 4.859375 -0.0195312 4.316406 0.109375 3.640625 0.109375 C 3.003906 0.109375 2.457031 -0.0078125 2 -0.25 C 1.539062 -0.488281 1.179688 -0.847656 0.921875 -1.328125 C 0.671875 -1.804688 0.546875 -2.390625 0.546875 -3.078125 C 0.546875 -3.773438 0.675781 -4.363281 0.9375 -4.84375 C 1.207031 -5.320312 1.566406 -5.675781 2.015625 -5.90625 C 2.460938 -6.144531 2.96875 -6.265625 3.53125 -6.265625 C 4.40625 -6.265625 5.070312 -6.035156 5.53125 -5.578125 C 6 -5.117188 6.234375 -4.441406 6.234375 -3.546875 C 6.234375 -3.222656 6.222656 -2.972656 6.203125 -2.796875 Z M 4.75 -3.71875 C 4.738281 -4.1875 4.628906 -4.523438 4.421875 -4.734375 C 4.222656 -4.953125 3.925781 -5.0625 3.53125 -5.0625 C 2.75 -5.0625 2.289062 -4.613281 2.15625 -3.71875 Z M 4.75 -3.71875 "/></g></g></g></svg>